<svg xmlns="http://www.w3.org/2000/svg" viewBox="0 0 139.9 32.91"><defs><style>.cls-1{fill:#0975b4;}.cls-2{fill:#f26c4f;}</style></defs><title>Asset 1</title><g id="Layer_2" data-name="Layer 2"><g id="Layer_1-2" data-name="Layer 1"><g id="_Group_" data-name="&lt;Group&gt;"><g id="_Group_2" data-name="&lt;Group&gt;"><path id="_Path_" data-name="&lt;Path&gt;" class="cls-1" d="M39,9.81a12.5,12.5,0,0,1,4.37-2.58,8.74,8.74,0,0,1,9.27,2.26,6.81,6.81,0,0,1,1.94,4.83c.08,5.73,0,11.47,0,17.21,0,.57-.17.71-.71.69-1.58,0-3.16,0-4.75,0-.65,0-.85-.14-.85-.82q.05-6.44,0-12.88a12.41,12.41,0,0,0-.36-3,3.94,3.94,0,0,0-6.08-2.22,5.7,5.7,0,0,0-2.68,4.48c-.42,4.47-.1,9-.16,13.44,0,.75-.16,1-1,1-1.58-.07-3.16-.06-4.74,0-.66,0-.78-.2-.78-.81,0-4.15,0-8.31,0-12.46,0-3.57,0-7.14,0-10.71,0-.59.08-.84.76-.82,1.68.06,3.35,0,5,0,.5,0,.73.1.67.65S39,9.08,39,9.81Z"/><path id="_Path_2" data-name="&lt;Path&gt;" class="cls-2" d="M15.57,15.29c0-2.69,0-4.93,0-7.16,0-.52.13-.68.66-.67,1.64,0,3.28,0,4.92,0,.49,0,.7.1.69.65-.07,4.74.13,9.49-.17,14.24a11.55,11.55,0,0,1-2.59,7.27,10,10,0,0,1-7.38,3.23,12.94,12.94,0,0,1-4.93-.59c-4-1.41-6-4.48-6.42-8.55C-.24,18.51.12,13.27,0,8c0-.44.15-.59.59-.58,1.72,0,3.45,0,5.17,0,.62,0,.59.32.59.74q0,6.53,0,13.06a10.57,10.57,0,0,0,.3,2.43A4.15,4.15,0,0,0,11.49,27a4.21,4.21,0,0,0,3.92-4C15.7,20.31,15.49,17.57,15.57,15.29Z"/><path id="_Path_3" data-name="&lt;Path&gt;" class="cls-1" d="M93.52,32.89a13.34,13.34,0,0,1-8.15-2.2,12.53,12.53,0,0,1-5.54-9,12.79,12.79,0,0,1,1.9-8.83,13,13,0,0,1,8.62-5.75,15.76,15.76,0,0,1,8.55.49,13.32,13.32,0,0,1,6.24,4.69c.15.2.18.27-.09.42-1.58.86-3.15,1.74-4.72,2.62-.34.19-.51-.06-.71-.26a7.94,7.94,0,0,0-5.85-2.38c-3.27.08-5.84,1.42-7.12,4.55A7,7,0,0,0,92.31,27a8.94,8.94,0,0,0,6.17-1.37,5.14,5.14,0,0,0,1-1c.38-.44.68-.39,1.12-.07,1.28.93,2.57,1.83,3.89,2.69.55.36.45.57.07,1A13.51,13.51,0,0,1,93.52,32.89Z"/><path id="_Path_4" data-name="&lt;Path&gt;" class="cls-1" d="M70.86,19.83c0,3.87,0,7.74,0,11.61,0,.65-.19.8-.8.78-1.67,0-3.33,0-5,0-.51,0-.67-.12-.67-.65q0-11.74,0-23.48c0-.54.17-.66.67-.65,1.67,0,3.34,0,5,0,.63,0,.81.14.8.79C70.84,12.09,70.86,16,70.86,19.83Z"/><path class="cls-1" d="M133.45,9.86c0-.32,0-.46,0-.6,0-1.81,0-1.81,1.86-1.81,1.33,0,2.66,0,4,0,.49,0,.61.15.61.63q0,11.78,0,23.56c0,.51-.19.6-.64.59-1.72,0-3.45,0-5.17,0-.53,0-.7-.14-.66-.67s0-1,0-1.5c-.88.42-1.51,1.09-2.3,1.54a10.21,10.21,0,0,1-7,1.13c-5.19-.89-8.32-4.22-9.56-9.05-1.33-5.14-.47-10,3.59-13.92a10.62,10.62,0,0,1,6-2.85A11.11,11.11,0,0,1,133.45,9.86Zm-10.51,4.29c-2.85,2.27-3.2,7.07-1.18,10a6.45,6.45,0,0,0,10,.91,7.53,7.53,0,0,0,1.85-6.79,6.52,6.52,0,0,0-6.55-5.61A6,6,0,0,0,122.93,14.15Z"/></g></g><g id="_Group_3" data-name="&lt;Group&gt;"><g id="_Group_4" data-name="&lt;Group&gt;"><path id="_Path_5" data-name="&lt;Path&gt;" class="cls-1" d="M67.82,5.09h0s-3.53-1.17-3.5-1.13v.67c0,1.22,1,2.37,3.34,2.37s3.32-1.15,3.32-2.37V4l-3.08,1Z"/><path id="_Path_6" data-name="&lt;Path&gt;" class="cls-1" d="M72.79,3.21s.72-.28.83-.31.09,0,.05-.07l-.77-.43L67.82,0l-6.1,2.88L67.82,5l4-1.37.13,0,.14-.05h.07l.6-.2Z"/><path id="_Path_7" data-name="&lt;Path&gt;" class="cls-1" d="M72.23,3.36a1.64,1.64,0,0,1,0,.45s-.28.28-.28.53a1.55,1.55,0,0,0,.21.59,18.45,18.45,0,0,0-.24,1.92c.18,0,.84,0,1,0s0,0,.1-.07S72.74,5.08,72.76,5s.26-.31.25-.58a1.12,1.12,0,0,0-.28-.56,2.75,2.75,0,0,1,0-.63Z"/></g></g></g></g></svg>